<svg width="24" height="24" viewBox="0 0 24 24" fill="none" xmlns="http://www.w3.org/2000/svg">
<path d="M10.9688 10.9688V6.75H12.6562V10.9688H16.875V12.6562H12.6562V16.875H10.9688V12.6562H6.75V10.9688H10.9688Z" fill="#FEFAE0"/>
<path fill-rule="evenodd" clip-rule="evenodd" d="M23.625 11.8125C23.625 18.3364 18.3364 23.625 11.8125 23.625C5.28864 23.625 0 18.3364 0 11.8125C0 5.28864 5.28864 0 11.8125 0C18.3364 0 23.625 5.28864 23.625 11.8125ZM21.9375 11.8125C21.9375 17.4044 17.4044 21.9375 11.8125 21.9375C6.22062 21.9375 1.6875 17.4044 1.6875 11.8125C1.6875 6.22062 6.22062 1.6875 11.8125 1.6875C17.4044 1.6875 21.9375 6.22062 21.9375 11.8125Z" fill="#FEFAE0"/>
</svg>
